<svg width="152" height="156" viewBox="0 0 152 156" fill="none" xmlns="http://www.w3.org/2000/svg">
<path d="M77.1934 74.1145C68.7528 83.393 75.2163 93.6094 75.0879 109.177C74.8991 132.017 86.9033 139.129 95.9882 133.728C105.073 128.326 102.784 114.118 110.592 106.29C110.616 106.266 110.64 106.242 110.665 106.217C110.688 106.192 110.711 106.167 110.734 106.142C118.229 98.0138 132.521 99.7084 137.539 90.4063C142.557 81.1041 134.949 69.4071 112.137 70.5482C96.5886 71.3261 86.1115 65.2941 77.1934 74.1145Z" fill="#9794AA" fill-opacity="0.5"/>
<path d="M49.5379 89.5207C61.2201 91.1157 69.8571 98.5139 68.8291 106.045C67.8007 113.577 57.4968 118.389 45.8144 116.794C34.1316 115.199 25.495 107.801 26.523 100.27C27.5516 92.7384 37.8554 87.9259 49.5379 89.5207Z" fill="#9794AA" fill-opacity="0.5"/>
<path d="M91.4323 45.8406C93.5135 57.4463 101.265 65.7674 108.748 64.4254C116.229 63.084 120.608 52.5881 118.527 40.9826C116.446 29.3768 108.694 21.0557 101.212 22.3976C93.7298 23.7392 89.3517 34.2347 91.4323 45.8406Z" fill="#9794AA" fill-opacity="0.5"/>
<path d="M50.9231 53.4197C61.2672 60.3201 66.0463 71.3199 61.5979 77.9885C57.1495 84.6568 45.1579 84.469 34.8138 77.5686C24.4696 70.6678 19.6902 59.6682 24.139 52.9997C28.587 46.3313 40.579 46.5192 50.9231 53.4197Z" fill="#9794AA" fill-opacity="0.5"/>
<path d="M55.4205 48.7302C62.7465 58.7775 73.936 63.0938 80.4133 58.3706C86.8904 53.648 86.2021 41.6743 78.8762 31.6272C71.5502 21.5799 60.3604 17.2638 53.8833 21.9865C47.4065 26.7098 48.0946 38.6832 55.4205 48.7302Z" fill="#9794AA" fill-opacity="0.5"/>
</svg>
